<svg width="148.29255371093748px" height="121.39999999999999px" xmlns="http://www.w3.org/2000/svg" viewBox="175.85372314453127 14.300000000000004 148.29255371093748 121.39999999999999" style="background: rgba(0, 0, 0, 0);" preserveAspectRatio="xMidYMid"><defs><filter id="editing-jagged" x="-100%" y="-100%" width="300%" height="300%"><feTurbulence result="turb" baseFrequency="0.1" numOctaves="1" seed="1"></feTurbulence><feDisplacementMap in="SourceGraphic" in2="turb" scale="10"></feDisplacementMap></filter></defs><g filter="url(#editing-jagged)"><g transform="translate(203.98304319381714, 92.5999984741211)"><path d="M20.22-22.46L20.22-22.46L20.22-22.46Q21.12-24.83 21.12-26.88L21.12-26.88L21.12-26.88Q21.12-30.66 18.05-30.66L18.05-30.66L18.05-30.66Q16.45-30.66 15.14-29.22L15.14-29.22L15.14-29.22Q13.82-27.78 13.82-25.98L13.82-25.98L13.82-25.98Q13.82-24.70 14.85-23.68L14.85-23.68L14.85-23.68Q16.32-22.27 20.10-19.97L20.10-19.97L20.10-19.97Q23.87-17.66 25.31-15.78L25.31-15.78L25.31-15.78Q26.75-13.89 26.75-11.30L26.75-11.30L26.75-11.30Q26.75-8.70 25.50-6.34L25.50-6.34L25.50-6.34Q24.26-3.97 22.02-2.30L22.02-2.30L22.02-2.30Q17.22 1.28 9.54 1.28L9.54 1.28L9.54 1.28Q5.38 1.28 2.18-0.90L2.18-0.90L2.18-0.90Q-1.02-3.01-1.02-5.50L-1.02-5.50L-1.02-5.50Q-1.02-8 0.80-9.47L0.80-9.47L0.80-9.47Q2.62-10.94 5.31-10.94L5.31-10.94L5.31-10.94Q8-10.94 9.66-9.92L9.66-9.92L9.66-9.92Q8.83-7.81 8.83-6.40L8.83-6.40L8.83-6.40Q8.83-2.18 12.42-2.18L12.42-2.18L12.42-2.18Q13.95-2.18 14.98-3.14L14.98-3.14L14.98-3.14Q16-4.10 16-5.76L16-5.76L16-5.76Q16-9.02 10.50-12.48L10.50-12.48L10.50-12.48Q6.02-15.42 4.99-16.58L4.99-16.58L4.99-16.58Q3.26-18.62 3.26-21.18L3.26-21.18L3.26-21.18Q3.26-23.74 4.48-26.18L4.48-26.18L4.48-26.18Q5.70-28.61 7.94-30.34L7.94-30.34L7.94-30.34Q12.61-33.92 20.74-33.92L20.74-33.92L20.74-33.92Q24.90-33.92 27.36-32.26L27.36-32.26L27.36-32.26Q29.82-30.59 29.82-27.78L29.82-27.78L29.82-27.78Q29.82-24.96 28.13-23.36L28.13-23.36L28.13-23.36Q26.43-21.76 23.36-21.76L23.36-21.76L23.36-21.76Q21.25-21.76 20.22-22.46ZM51.33-22.46L51.33-22.46L51.33-22.46Q52.22-24.83 52.22-26.88L52.22-26.88L52.22-26.88Q52.22-30.66 49.15-30.66L49.15-30.66L49.15-30.66Q47.55-30.66 46.24-29.22L46.24-29.22L46.24-29.22Q44.93-27.78 44.93-25.98L44.93-25.98L44.93-25.98Q44.93-24.70 45.95-23.68L45.95-23.68L45.95-23.68Q47.42-22.27 51.20-19.97L51.20-19.97L51.20-19.97Q54.98-17.66 56.42-15.78L56.42-15.78L56.42-15.78Q57.86-13.89 57.86-11.30L57.86-11.30L57.86-11.30Q57.86-8.70 56.61-6.34L56.61-6.34L56.61-6.34Q55.36-3.97 53.12-2.30L53.12-2.30L53.12-2.30Q48.32 1.28 40.64 1.28L40.64 1.28L40.64 1.28Q36.48 1.28 33.28-0.90L33.28-0.90L33.28-0.90Q30.08-3.01 30.08-5.50L30.08-5.50L30.08-5.50Q30.08-8 31.90-9.47L31.90-9.47L31.90-9.47Q33.73-10.94 36.42-10.94L36.42-10.94L36.42-10.94Q39.10-10.94 40.77-9.92L40.77-9.92L40.77-9.92Q39.94-7.81 39.94-6.40L39.94-6.40L39.94-6.40Q39.94-2.18 43.52-2.18L43.52-2.18L43.52-2.18Q45.06-2.18 46.08-3.14L46.08-3.14L46.08-3.14Q47.10-4.10 47.10-5.76L47.10-5.76L47.10-5.76Q47.10-9.02 41.60-12.48L41.60-12.48L41.60-12.48Q37.12-15.42 36.10-16.58L36.10-16.58L36.10-16.58Q34.37-18.62 34.37-21.18L34.37-21.18L34.37-21.18Q34.37-23.74 35.58-26.18L35.58-26.18L35.58-26.18Q36.80-28.61 39.04-30.34L39.04-30.34L39.04-30.34Q43.71-33.92 51.84-33.92L51.84-33.92L51.84-33.92Q56-33.92 58.46-32.26L58.46-32.26L58.46-32.26Q60.93-30.59 60.93-27.78L60.93-27.78L60.93-27.78Q60.93-24.96 59.23-23.36L59.23-23.36L59.23-23.36Q57.54-21.76 54.46-21.76L54.46-21.76L54.46-21.76Q52.35-21.76 51.33-22.46ZM82.43-22.46L82.43-22.46L82.43-22.46Q83.33-24.83 83.33-26.88L83.33-26.88L83.33-26.88Q83.33-30.66 80.26-30.66L80.26-30.66L80.26-30.66Q78.66-30.66 77.34-29.22L77.34-29.22L77.34-29.22Q76.03-27.78 76.03-25.98L76.03-25.98L76.03-25.98Q76.03-24.70 77.06-23.68L77.06-23.68L77.06-23.68Q78.53-22.27 82.30-19.97L82.30-19.97L82.30-19.97Q86.08-17.66 87.52-15.78L87.52-15.78L87.52-15.78Q88.96-13.89 88.96-11.30L88.96-11.30L88.96-11.30Q88.96-8.70 87.71-6.34L87.71-6.34L87.71-6.34Q86.46-3.97 84.22-2.30L84.22-2.30L84.22-2.30Q79.42 1.28 71.74 1.28L71.74 1.28L71.74 1.28Q67.58 1.28 64.38-0.90L64.38-0.90L64.38-0.90Q61.18-3.01 61.18-5.50L61.18-5.50L61.18-5.50Q61.18-8 63.01-9.47L63.01-9.47L63.01-9.47Q64.83-10.94 67.52-10.94L67.52-10.94L67.52-10.94Q70.21-10.94 71.87-9.92L71.87-9.92L71.87-9.92Q71.04-7.81 71.04-6.40L71.04-6.40L71.04-6.40Q71.04-2.18 74.62-2.18L74.62-2.18L74.62-2.18Q76.16-2.18 77.18-3.14L77.18-3.14L77.18-3.14Q78.21-4.10 78.21-5.76L78.21-5.76L78.21-5.76Q78.21-9.02 72.70-12.48L72.70-12.48L72.70-12.48Q68.22-15.42 67.20-16.58L67.20-16.58L67.20-16.58Q65.47-18.62 65.47-21.18L65.47-21.18L65.47-21.18Q65.47-23.74 66.69-26.18L66.69-26.18L66.69-26.18Q67.90-28.61 70.14-30.34L70.14-30.34L70.14-30.34Q74.82-33.92 82.94-33.92L82.94-33.92L82.94-33.92Q87.10-33.92 89.57-32.26L89.57-32.26L89.57-32.26Q92.03-30.59 92.03-27.78L92.03-27.78L92.03-27.78Q92.03-24.96 90.34-23.36L90.34-23.36L90.34-23.36Q88.64-21.76 85.57-21.76L85.57-21.76L85.57-21.76Q83.46-21.76 82.43-22.46Z" fill="#444"></path></g></g><style>text {
  font-size: 64px;
  font-family: Arial Black;
  dominant-baseline: central;
  text-anchor: middle;
}</style></svg>


