<svg width="147" height="35" viewBox="0 0 147 35" fill="none" xmlns="http://www.w3.org/2000/svg">
<path d="M19.0156 10.8467H10.9971V8.38574C10.9971 7.2373 10.8945 6.50586 10.6895 6.19141C10.4844 5.87695 10.1426 5.71973 9.66406 5.71973C9.14453 5.71973 8.74805 5.93164 8.47461 6.35547C8.21484 6.7793 8.08496 7.42188 8.08496 8.2832C8.08496 9.39062 8.23535 10.2246 8.53613 10.7852C8.82324 11.3457 9.63672 12.0225 10.9766 12.8154C14.8184 15.0986 17.2383 16.9717 18.2363 18.4346C19.2344 19.8975 19.7334 22.2559 19.7334 25.5098C19.7334 27.875 19.4531 29.6182 18.8926 30.7393C18.3457 31.8604 17.2793 32.8037 15.6934 33.5693C14.1074 34.3213 12.2617 34.6973 10.1562 34.6973C7.8457 34.6973 5.87012 34.2598 4.22949 33.3848C2.60254 32.5098 1.53613 31.3955 1.03027 30.042C0.524414 28.6885 0.271484 26.7676 0.271484 24.2793V22.1055H8.29004V26.1455C8.29004 27.3896 8.39941 28.1895 8.61816 28.5449C8.85059 28.9004 9.25391 29.0781 9.82812 29.0781C10.4023 29.0781 10.8262 28.8525 11.0996 28.4014C11.3867 27.9502 11.5303 27.2803 11.5303 26.3916C11.5303 24.4365 11.2637 23.1582 10.7305 22.5566C10.1836 21.9551 8.83691 20.9502 6.69043 19.542C4.54395 18.1201 3.12207 17.0879 2.4248 16.4453C1.72754 15.8027 1.14648 14.9141 0.681641 13.7793C0.230469 12.6445 0.00488281 11.1953 0.00488281 9.43164C0.00488281 6.88867 0.326172 5.0293 0.96875 3.85352C1.625 2.67773 2.67773 1.76172 4.12695 1.10547C5.57617 0.435547 7.32617 0.100586 9.37695 0.100586C11.6191 0.100586 13.5264 0.462891 15.0986 1.1875C16.6846 1.91211 17.7305 2.82812 18.2363 3.93555C18.7559 5.0293 19.0156 6.89551 19.0156 9.53418V10.8467ZM39.8516 0.797852V7.44238H34.7246V34H26.0908V7.44238H20.9844V0.797852H39.8516ZM56.7295 0.797852L61.6719 34H52.833L52.4023 28.0322H49.3057L48.793 34H39.8516L44.2402 0.797852H56.7295ZM52.1562 22.1465C51.7188 18.3867 51.2812 13.7451 50.8438 8.22168C49.9688 14.5654 49.4219 19.207 49.2031 22.1465H52.1562ZM83.3076 15.2764H74.6738V9.49316C74.6738 7.81152 74.5781 6.76562 74.3867 6.35547C74.209 5.93164 73.8057 5.71973 73.1768 5.71973C72.4658 5.71973 72.0146 5.97266 71.8232 6.47852C71.6318 6.98438 71.5361 8.07812 71.5361 9.75977V25.1816C71.5361 26.7949 71.6318 27.8477 71.8232 28.3398C72.0146 28.832 72.4453 29.0781 73.1152 29.0781C73.7578 29.0781 74.1748 28.832 74.3662 28.3398C74.5713 27.8477 74.6738 26.6924 74.6738 24.874V20.7109H83.3076V22.0029C83.3076 25.4346 83.0615 27.8682 82.5693 29.3037C82.0908 30.7393 81.0176 31.9971 79.3496 33.0771C77.6953 34.1572 75.6514 34.6973 73.2178 34.6973C70.6885 34.6973 68.6035 34.2393 66.9629 33.3232C65.3223 32.4072 64.2354 31.1426 63.7021 29.5293C63.1689 27.9023 62.9023 25.4619 62.9023 22.208V12.5078C62.9023 10.1152 62.9844 8.32422 63.1484 7.13477C63.3125 5.93164 63.7979 4.77637 64.6045 3.66895C65.4248 2.56152 66.5527 1.69336 67.9883 1.06445C69.4375 0.421875 71.0986 0.100586 72.9717 0.100586C75.5146 0.100586 77.6133 0.592773 79.2676 1.57715C80.9219 2.56152 82.0088 3.79199 82.5283 5.26855C83.0479 6.73145 83.3076 9.01465 83.3076 12.1182V15.2764ZM106.974 0.797852L102.031 15.7891L107.445 34H98.5244L95.0381 19.7676V34H86.4043V0.797852H95.0381V13.6973L98.873 0.797852H106.974ZM108.963 0.797852H123.359V7.44238H117.597V13.7383H122.99V20.0547H117.597V27.3555H123.934V34H108.963V0.797852ZM126.436 0.797852H132.896C137.065 0.797852 139.882 0.989258 141.345 1.37207C142.821 1.75488 143.942 2.38379 144.708 3.25879C145.474 4.13379 145.952 5.11133 146.144 6.19141C146.335 7.25781 146.431 9.36328 146.431 12.5078V24.1357C146.431 27.1162 146.287 29.1123 146 30.124C145.727 31.1221 145.241 31.9082 144.544 32.4824C143.847 33.043 142.985 33.4395 141.96 33.6719C140.935 33.8906 139.39 34 137.325 34H126.436V0.797852ZM135.069 6.47852V28.3193C136.313 28.3193 137.079 28.0732 137.366 27.5811C137.653 27.0752 137.797 25.7148 137.797 23.5V10.6006C137.797 9.09668 137.749 8.13281 137.653 7.70898C137.558 7.28516 137.339 6.97754 136.997 6.78613C136.655 6.58105 136.013 6.47852 135.069 6.47852Z" fill="#000"/>
</svg>
